<?xml version="1.0" standalone="no"?>
<!DOCTYPE svg PUBLIC "-//W3C//DTD SVG 20010904//EN"
 "http://www.w3.org/TR/2001/REC-SVG-20010904/DTD/svg10.dtd">
<svg version="1.0" xmlns="http://www.w3.org/2000/svg"
 width="500.000000pt" height="500.000000pt" viewBox="0 0 500.000000 500.000000"
 preserveAspectRatio="xMidYMid meet">
<metadata>
Created by potrace 1.11, written by Peter Selinger 2001-2013
</metadata>
<g transform="translate(0.000000,500.000000) scale(0.100000,-0.100000)"
fill="#000000" stroke="none">
<path d="M2735 4595 c-373 -78 -650 -281 -855 -625 -78 -130 -104 -220 -104
-360 -1 -126 10 -171 69 -290 69 -136 111 -183 451 -497 126 -116 256 -246
289 -288 283 -359 393 -804 280 -1133 -33 -98 -175 -388 -225 -462 -54 -79
-168 -196 -275 -280 l-80 -63 -57 63 c-74 80 -120 173 -189 379 -63 193 -88
228 -179 255 -127 38 -251 42 -405 14 -111 -20 -158 -55 -181 -136 -18 -60
-13 -119 12 -156 8 -14 40 -33 75 -45 68 -25 93 -54 160 -181 113 -216 283
-359 479 -404 315 -72 626 -28 883 125 284 170 518 420 661 706 138 276 167
541 90 811 -32 114 -126 306 -201 410 -121 169 -215 259 -568 544 -306 248
-411 378 -455 566 -47 203 74 479 298 676 70 62 188 140 200 132 12 -7 45 -92
66 -167 28 -102 77 -146 163 -148 50 -1 63 20 63 102 0 126 32 131 45 8 11
-115 9 -111 75 -111 44 0 65 6 94 25 20 13 42 22 50 19 29 -11 52 30 65 114
27 178 -41 296 -212 368 -140 59 -383 72 -582 29z m722 -367 c-2 -13 -4 -3 -4
22 0 25 2 35 4 23 2 -13 2 -33 0 -45z m-1377 -605 c-1 -79 -2 -86 -15 -69 -24
31 -28 79 -11 119 8 21 17 37 20 37 4 0 6 -39 6 -87z m1192 -1903 c0 -100 -10
-151 -30 -158 -9 -3 -12 43 -11 185 l1 188 20 -60 c15 -44 20 -86 20 -155z"/>
</g>
</svg>
