<svg width="452" height="110" xmlns="http://www.w3.org/2000/svg"><g fill-rule="nonzero" fill="none"><path d="M17.2 64.8c2.7-2 5-4 6.5-6.7l2-4.3c2.5-5 1.6-10-.6-15a24 24 0 0 0-5-7l-5.4-5-2.9-2.9c-3.4-4.2-3.9-8.4-1-13a20 20 0 0 1 22.8-9.7c2.9 1.2 4.2 3.5 3.4 6.4-.1.7 0 1.8-1.4 1.4-.7 1.1-1.8.7-2.8.7l-.5-3.2H32c0 1 0 2-.2 3-.9.4-1.7.2-2.6-.2-.4-.3-.6-1-.8-1.5-.3-1.1-.5-2.2-1.2-3.3-4 2.4-6.8 5.4-8 10-.5 2 .2 4.1 1.3 6.1 1 1.8 2.6 3.2 4.1 4.5l6.7 5.5c2.2 1.8 4 4 5.4 6.3 3.3 5.5 3.9 11.3 1.1 17.3-2.3 5-5.8 8.7-10.3 11.6A18.8 18.8 0 0 1 13 68.3c-4.2-.8-6.8-3.8-8.6-7.5-.5-1-.9-1.8-2.1-2-1-.2-1.5-1-1.5-2 0-1.8.8-3 2.5-3.2 2.4-.6 4.7-.7 7.1 0a3 3 0 0 1 2.2 2.1L14 60c.6 1.9 1.6 3.4 3.2 4.9zm15-15.5l.5.1c.7-2.1.4-4.2-.5-6.3v6.2zm5.2-6c.7 2 .8 3.8.3 5.7l-.1-2.8-.2-2.8zM13.9 14.9c-.8 1.2-.8 1.9 0 3.1v-3zm22.1-9h-.2V7h.3V5.8zM54 48a17.8 17.8 0 0 0-1.5 8.6c.2 1.6.9 3.1 2 4.4.6.6 1.1.7 2 .4 3.1-1 6.2-2 9.5-2.7 3-.6 5.9-.7 8.7.4 1.1.4 1.4 1 1 1.9-.1 0-.2.3-.4.3-.4.3-1-.4-1.4.5-.2.3-1 .2-1.7.4-.8.2-1.9.3-2.7.6A35.4 35.4 0 0 1 48.1 65c-4.8-1.3-6.7-5-6.2-9.5.3-2.1.7-4.3 1.6-6.3 2-4.7 4-9.3 6.2-13.9a17 17 0 0 1 13.7-9.8c2.1-.2 4.3-.2 6.3.4 3.6.7 6.4 2.8 8.4 6a4.5 4.5 0 0 1-.2 5.5c-.9 1.1-1.8 2-3 2.9a39.5 39.5 0 0 1-19.5 7.6l-1.3.2zm11.2-19.2c-.7.7-1.2 1-1.8 1.3a16.4 16.4 0 0 0-4.2 5.6 141 141 0 0 0-3.2 7l-.3 1 .6-.1c3.5-1.5 6.7-3.3 9.5-5.9.7-.6 1.3-1.4 1.8-2.2.6-1 .6-2.2 0-3.3a52 52 0 0 0-2.4-3.4zM47.1 53c-.6 1.6-1.2 3.2 0 5v-5zm4.2.9H51v3h.2v-3zm21-19h.4c.3-.5.5-1-.3-1.4v1.3zm5 .1h.4l-.1-1h-.3v1zm8 33.2c-.3 0-.8.5-1.3.4-.8-.1-1.6-.4-2.3-.8-.6-.4-.6-1.6.2-2 1.3-1 1.3-2.2 1.6-3.5 1.4-7 2.6-14.1 4.2-21.1.6-3 1.8-6.2 2.6-9.4.4-1.1 1.2-1.8 2.4-2 1-.1 1.6-.5 2.4-1.4.6-.8 1.5-1.3 2.6-1.5 2.3-.4 4.6-.5 6.8 0A6 6 0 0 1 108 29l2.4 3.6c.3.5.5 1 1.4 1l.5.7c.7-1 1.8-1 3-.7.3 0 .5.4.9.7h1c0 .3 0 .8-.2 1.1-.2.4-.6.9-1 1.2l-1.4.7c-3.8 1.1-7.6 1-11.3-.2a5.7 5.7 0 0 1-3.3-2.5c-.8.4-1 1.2-1.1 1.9-.8 4.6-1.9 9.1-2.6 13.8l-1.9 13.5v.3c-.3 1.6-.8 3-2.7 3.3-1.7.3-3.3.8-4.9 1.2-.4 0-.8-.3-1.3-.5zm8.2-9.6c.6-.4.3-1.2.5-1.9l-.4.6v1.3zm.6-2.4l.1-1.6H94l.2 1.6zm-.6 2.8l-.4 2v1.7h.2c0-.6 0-1.2-.2-1.7.7-.7.6-1.3.4-2zm-1.7-15h-.4l-3.5 19.7h.5c1.3-6.4 1.8-13.1 3.4-19.7zm2.4 9.3h.3v-.9h-.2v.9zm55.1-23.8c2.2.7 2.7 1.7 2.2 4l-3.2 24.7v2.3l-.4 1c0 .5 0 1.1-.3 1.8h-.1c-1.2 6.4-3.6 14.5-4.3 17.3a59 59 0 0 1-6.5 17.8c-2.3 4.3-5.5 8-9.5 10.6-2.2 1.5-8.4.4-11.1-.7a3.4 3.4 0 0 1-2-3c-.3-1.6.3-3 .7-4.6 1.3-4.2 1.9-6.1 3.8-10 1.7-3.9 3.7-7.6 5.6-11.2.4-.6 3.2-4.4 5.6-7.4l-3.1-.6c-.7-.2-1.5-.3-2-.6-4-1.7-6-6.3-5.5-12 .7-6.7 3.8-18 7-23 .7-1 1.6-1.6 2.5-2.4l.8-1c1.1-2.1 2.8-3.6 4.6-4.3 3-1.3 13 .5 15.3 1.3zM124 61.9l.3-6.9c-.6 2.3-1.2 4.5-.3 7zm-8.6 43l.3-2.6-.2-.1-.3 2.6h.2zm3.5.3l.3-3.8c-.4 1.3-1 2.4-.6 3.8h.3zm9-44l.2-4h-.2l-.2 4h.2zm1.3-2c-.2 2.5 0 4.9 1.2 7l.6-.5c2.9-3.2 5-6.8 6.7-10.9.7-5 2-15.8 2.3-19.2h-.4l-.6.4.7-3.4c-1 1-1.5 2.2-1.9 3.4-.4 1.7-.4 3 0 4.6 0 .4-.3.8-.4 1.2l-.8-.5c-.1.3-.1.8-.3 1-.8.1-1.5.6-2 .1-.7 0-1-1-1.4-1.7l-.5 1.8c-.2.6-.6 1-.8 1.5-.9 3-2.2 12-2.4 15.2zm-6.3 44c7-6.8 9-13.9 11.4-23.3h-.2c-.3.1-.5.5-.7.9l-8.6 15.7c-1.2 2.3-.9 2.9-2 5.4l-.2 1.3h.3zm12.1-21l.1-.7-.2.7h.1zm.2-1.2c.6-.5.3-1 .3-1.8l-.3 1.8zm.4-2c.7-.7.6-1.7.8-2.6a8 8 0 0 0-.8 2.6zm1.5-13.2l1-3.2-.6.2-.3 1.3-.3 1.8h.2zm1.2-5.7l.4-.8c1.2-3.9 2.5-20 3.1-24V35l-1.3 6.6-2.2 18.5zm-.6 26.2c2-5.4 3-11 4.2-16.6l-.4.3-3.8 16.3zm5-23.2c1.5-5.5 3.1-23.4 4.2-29.1l-.1-1.1c0-.2-.2-.3-.4-.6L142 63.5l.6-.4zm23.7-15a17.8 17.8 0 0 0-1.5 8.6c.2 1.6.8 3.1 2 4.4.6.6 1 .7 2 .4 3.1-1 6.2-2 9.5-2.7 2.9-.6 5.9-.7 8.6.4 1.2.4 1.5 1 1 1.9 0 0-.1.3-.3.3-.4.3-1-.4-1.5.5 0 .3-1 .2-1.6.4-.9.2-1.9.3-2.7.6a35.4 35.4 0 0 1-21.4 2.1c-4.9-1.3-6.7-5-6.2-9.5.3-2.1.7-4.3 1.5-6.3 2-4.7 4-9.3 6.3-13.9a17 17 0 0 1 13.7-9.8c2-.2 4.2-.2 6.3.4 3.6.7 6.4 2.8 8.3 6a4.5 4.5 0 0 1-.2 5.5c-.8 1.1-1.7 2-2.8 2.9a39.5 39.5 0 0 1-19.6 7.6l-1.4.2zm11.2-19.2l-1.8 1.3a16.4 16.4 0 0 0-4.2 5.6 141 141 0 0 0-3.2 7l-.3 1 .6-.1c3.5-1.5 6.7-3.3 9.5-5.9.7-.6 1.2-1.4 1.7-2.2.7-1 .7-2.2 0-3.3a52 52 0 0 0-2.3-3.4zm-18.2 24c-.6 1.6-1 3.2 0 5v-5zm4.3.9h-.2v3h.2v-3zm21-19h.4c.3-.5.5-1-.3-1.4l-.1 1.3zm5 .1h.3v-1h-.4v1zm11.3 51.6c.2-.6.8-1.1.2-2l-.7 1.6c0 .3-.3.5-.7.4-.7 0-1.4-.2-2-.4-.7-.2-.9-.5-.8-1.2 1-5 3-9.5 5-14 1.5-3.6 3-7.2 4.7-10.8 0-.2-.2-.3-.2-.3-2.3-.2-3.7-1.6-4.7-3.4a68 68 0 0 1-8-22.5c-.4-2.7.1-3.3 3.2-3.5h.2c-.2 1.5.5 2.9.8 4.2l-.1-4.1c1.3-.4 2.5 0 3 1v-.7l.6.2.5.8c1.1 3.4 2.3 6.7 3.6 10a44.3 44.3 0 0 0 4.8 9.3l1.9-4.3 6.4-14.6c.6-1.5 2-2.3 3.6-2.1.5 0 .5.3.3.6l-.3.7.2.1.2-.4c.3-.3.5-1 .7-1 .8 0 1.5 0 2.4.2v.6c0 .2 0 .5.2.7l.3-1.1c1 .3 1 .6.7 1.5-1 2.7-1.6 5.3-2.7 8l-12.8 32.3c-1.6 3.8-3 7.7-5 11.3l-.3.3c-.6 2-2.2 2.6-4 2.6h-1.3z" fill="#16355F"/><path d="M252.1 40.7v2.7a359 359 0 0 1-1.5 13.6l-.4 4.5c0 .4-.2.7-.3 1-.1.3-.3.5-.6.4l-.2.1h-1-.1l-.1-.5h-.1v.2c-.1.4-.2.4-.5.3-1-.2-1.1-.3-1-1.3 0-1.4.2-2.6.4-3.9.1-2.1 1.2-11.5 1.3-13.6l.2-3.3v-.3h-.3l-3-.3c-.4 0-.7 0-1-.2-.2 0-.3-.2-.3-.3l.2-.2 2-.2h2.5V39l.4-4.8.3-1.5c0-.3.3-.6.6-.6l.9-.1-.2 1.4-.1 1.1-.3 4.6c0 .2 0 .3.3.3V39l.4-6.3.2-.8 1 .2.1.1c.6 0 .5.4.5.8l-.3 6c0 .3 0 .4.4.4l2.2.2c.3 0 .7 0 1 .2l.4.3-.3.3-1.5.2H252zm-2 0c-.3 0-.2 0-.2.3l-.3 4.2-1.6 16s-.1 0 0 .2v.1h.1v-.3c.5-4 1.8-15 2-18.8v-1.7zm1.4 0c0 4.8-1.6 16.7-2 21.5.4-.8 2.4-21 2-21.4zm.6-7.5h-.1c-.2.2-.6 5.9-.3 6.2 0-2 .2-4.1.4-6.2zm17.7 22c0 2.4 1 6.1-.4 6.2l-2.4-.1c-.4 0-.8-.3-1.2-.5-.6-.3-1-.8-.9-1.4l.2-2c.3-2.5.3-5.1 0-7.7v-1l-.5.3-2.6 3.3a2 2 0 0 0-.4 1l-.7 5.3a14 14 0 0 1-1 3.2c-.3.6-.7 1-1.4 1a7 7 0 0 1-2.8 0c-.5 0-.7-.4-.7-1a14.8 14.8 0 0 1 1.3-6.7l2.3-13.6c.5-2.3 1.1-4.5 1.8-6.7.3-1.1.7-2.1 1.3-3 1.3-2 3-2.5 5.4-2 .7.2 1.2.7 1.5 1.3.3.7.4 1.5.4 2.3 0 3-.1 6-1 9a15 15 0 0 1-1.8 3.9l1.7.2c.6.2 1 .6 1.3 1.3l.3 1.8.3 5.6zM268.2 39v.3-.3zm-1.3-6.8c.2 2.7-.1 5.3-.4 7.9l.1-.5c.3-1.7.5-3.5.5-5.3v-1.6l-.2-.5zm-1.7.5a68 68 0 0 0-3.2 13.7 15 15 0 0 0 2.8-6.5c.6-3 .8-6.3.4-7.2zm-5 9.8a480 480 0 0 1-1.4 7.7h.3l1.2-7.7h-.1zm.2 15.1c.3 0 0-.4.1-.6l-.1.6v.8-.8zm17-3.6a7.4 7.4 0 0 0-.7 3.6c0 .7.3 1.3.8 1.8.3.3.5.3.8.2l4-1.1a6 6 0 0 1 3.6.2c.5.1.6.4.5.7l-.2.2c-.2.1-.4-.2-.6.2 0 .1-.4 0-.7.2-.3 0-.8 0-1.1.2a14.8 14.8 0 0 1-9 .9c-2-.6-2.8-2.1-2.5-4 0-.9.3-1.8.6-2.6l2.6-5.8a7 7 0 0 1 5.7-4c1-.2 1.8-.2 2.7 0 1.5.3 2.6 1.2 3.5 2.5.5.8.4 1.6-.1 2.4l-1.2 1.2a16.5 16.5 0 0 1-8.2 3.1l-.6.1zm4.6-8l-.8.5c-.7.7-1.3 1.5-1.7 2.4-.5 1-1 1.9-1.3 2.9l-.2.4h.3a13 13 0 0 0 4-2.5l.7-.9c.2-.4.2-1 0-1.4l-1-1.4zm-7.6 10c-.2.7-.5 1.4 0 2.1V56zm1.8.4h-.1v1.3-1.3zm8.7-8h.2c.1-.1.2-.3-.1-.5v.5zm2.1.1h.2v-.4h-.2v.4zM314.5 32c.4 0 .4.3.4.6l-.6 3.7c-1 5-1.5 8.1-2 13l-1.2 8.5-.2 2.2c0 1-.5 1.5-1.4 1.8-.6.1-1 .4-1.6.1l-.2.1c-.5.2-1 0-1.6-.2-.2 0-.3-.3-.3-.6v-1l1.6-9.5s1.3-6.8 1.9-9.1c.7-3 1.1-6.8 1.5-7.4l.3-1c.3-1 .7-1.3 1.8-1.2h.1c.5-.3 1-.1 1.5 0zM308 61.5v-.3l-.1.3h.1zm.2-1.7l.3-2h-.1l-.3 2h.1zm1.4-9.4l.1-.7h-.1l-.1.7zm.8 8.7v-.4.4zm-.6-10l.1-.8c-.2.3-.2.5-.2.8zm.4-3.2l.1-.7-.2.7h.1zm11.5-.4v.6c.4-.6.7-.7 1.4-.5 1 .3 1 .2.7 1.3l-2 7.4-1 3.9v2c.7 0 1-.4 1.4-.8.5-.5 1-.6 1.7-.7h.2l-.1.5h.1c.5-.8 1.1-.5 1.8-.4v.4h.2l.2-.2.2.3-.1.4c-.3.8-.9 1.2-1.6 1.5-1.4.6-2.8 1-4.4 1a29.9 29.9 0 0 1-3.4-.6c-1-.4-1.2-.7-1-1.7l1.1-4c.6-2 1-4.2 1.7-6.3.3-1.1.8-2.2 1.2-3.2.2-.5.5-.7 1-.8h.7zm-3.3 14.7v-1.7c-.4 1-.4 1.2 0 1.7zm1.9-1.4c-.3.6-.3.7 0 1.1v-1.1zm2.4-15.2v-2.1c.6-.2 1.2 0 1.7.3.5.2.3 1.3-.2 1.5a4 4 0 0 1-1.5.3zm-.5-2.2c.3.7.1 1.3.2 2l-.4.2c-.4 0-.9 0-1.2-.4v-1c0-.3 0-.5.3-.6l1.1-.2zm12-.7v2.7a359 359 0 0 1-1.5 13.6l-.5 4.5-.2 1c-.1.3-.3.5-.6.4l-.2.1h-1-.1l-.1-.5h-.1l-.1.2c0 .4 0 .4-.4.3-1-.2-1.2-.3-1-1.3 0-1.4.2-2.6.4-3.9.1-2.1 1.2-11.5 1.3-13.6l.2-3.3v-.3h-.3l-3-.3c-.4 0-.7 0-1-.2-.2 0-.3-.2-.3-.3l.2-.2 2-.2h2.5V39l.4-4.8.2-1.5c.1-.3.3-.6.7-.6l.9-.1-.2 1.4-.1 1.1-.3 4.6c0 .2 0 .3.2.3V39l.5-6.3.1-.8 1.1.2.1.1c.6 0 .5.4.5.8l-.3 6c0 .3 0 .4.4.4l2.2.2c.3 0 .6 0 1 .2l.4.3-.3.3-1.5.2h-2.2zm-2 0c-.3 0-.3 0-.3.3 0 1.3 0 2.7-.2 4.2l-1.6 16s-.1 0 0 .2v.1h.1v-.3c.5-4 1.8-15 2-18.8v-1.7zm1.4 0c0 4.8-1.6 16.7-2 21.5.4-.8 2.4-21 2-21.4zm.5-7.5c-.3.2-.6 5.9-.3 6.2l.3-6.2zm9.3 7.5v2.7a359 359 0 0 1-1.5 13.6l-.5 4.5-.2 1c-.1.3-.3.5-.6.4l-.2.1h-1-.1l-.1-.5h-.1l-.1.2c0 .4 0 .4-.4.3-1-.2-1.2-.3-1-1.3 0-1.4.2-2.6.4-3.9.1-2.1 1.2-11.5 1.3-13.6l.2-3.3v-.3h-.3l-3-.3c-.4 0-.7 0-1-.2-.2 0-.3-.2-.3-.3l.2-.2 2-.2h2.5V39l.4-4.8.2-1.5c.1-.3.3-.6.7-.6l.9-.1-.2 1.4-.1 1.1-.3 4.6c0 .2 0 .3.2.3V39l.5-6.3.2-.8 1 .2.1.1c.6 0 .5.4.5.8l-.3 6c0 .3 0 .4.4.4l2.2.2c.3 0 .7 0 1 .2l.4.3-.3.3-1.5.2h-2.2zm-2 0c-.3 0-.3 0-.3.3 0 1.3 0 2.7-.2 4.2l-1.6 16s-.1 0 0 .2v.1h.1v-.3c.5-4 1.8-15 2-18.8v-1.7zm1.4 0c0 4.8-1.6 16.7-2 21.5.4-.8 2.4-21 2-21.4zm.5-7.5c-.3.2-.6 5.9-.3 6.2l.3-6.2zm11.8-1.2c.5 0 .5.3.4.6l-.5 3.7c-1 5-1.6 8.1-2.2 13l-1 8.5-.2 2.2c-.1 1-.6 1.5-1.5 1.8-.5.1-1 .4-1.6.1l-.2.1c-.5.2-1 0-1.5-.2-.3 0-.4-.3-.4-.6l.1-1 1.5-9.5 2-9.1c.7-3 1-6.8 1.4-7.4l.4-1c.3-1 .7-1.3 1.8-1.2.5-.3 1-.1 1.5 0zm-6.5 29.5l.1-.3-.2.3h.1zm.2-1.7l.3-2-.3 2zm1.4-9.4l.2-.7h-.2v.7zm.8 8.7v-.4.4zm-.6-10l.2-.8h-.1l-.2.8zm.5-3.2v-.7l-.2.7h.2zm10.8 8.1a7.4 7.4 0 0 0-.6 3.6c0 .7.3 1.3.8 1.8.2.3.4.3.8.2l4-1.1a6 6 0 0 1 3.6.2c.5.1.6.4.4.7l-.1.2c-.2.1-.5-.2-.6.2 0 .1-.5 0-.7.2-.4 0-.8 0-1.1.2a14.8 14.8 0 0 1-9 .9c-2-.6-2.8-2.1-2.6-4 .2-.9.3-1.8.7-2.6.8-2 1.6-4 2.6-5.8a7 7 0 0 1 5.7-4c.9-.2 1.8-.2 2.6 0 1.5.3 2.7 1.2 3.5 2.5.5.8.5 1.6 0 2.4l-1.3 1.2a16.5 16.5 0 0 1-8.1 3.1l-.6.1zm4.6-8l-.7.5c-.8.7-1.3 1.5-1.7 2.4l-1.4 2.9-.1.4h.2a13 13 0 0 0 4-2.5c.3-.2.5-.6.7-.9.3-.4.3-1 0-1.4l-1-1.4zm-7.5 10c-.3.7-.5 1.4 0 2.1V56zm1.7.4v1.3-1.3zm8.8-8h.2c.1-.1.2-.3-.1-.5v.5zm2 .1h.2v-.4h-.1v.4zM396.5 61c1.1-.8 2-1.7 2.7-2.8l.9-1.8c1-2.1.6-4.2-.3-6.2a10 10 0 0 0-2-3l-2.3-2-1.2-1.3c-1.5-1.7-1.7-3.5-.5-5.4a8.4 8.4 0 0 1 9.5-4c1.2.4 1.8 1.4 1.5 2.6 0 .3 0 .8-.6.6-.3.5-.8.3-1.2.3l-.2-1.3h-.1l-.1 1.2c-.4.2-.8 0-1.1 0l-.4-.7c0-.5-.2-1-.5-1.4a6.6 6.6 0 0 0-3.3 4.2c-.2.9 0 1.7.5 2.5a8 8 0 0 0 1.8 2l2.8 2.2c.9.8 1.6 1.6 2.2 2.6a7.3 7.3 0 0 1 .5 7.3c-1 2-2.4 3.6-4.3 4.8a7.8 7.8 0 0 1-6 1c-1.8-.3-2.9-1.5-3.6-3-.2-.5-.4-.8-1-.9-.4 0-.5-.4-.5-.9 0-.7.3-1.2 1-1.3 1-.2 2-.3 3 0 .4.2.7.5.9 1l.6 1.7c.2.7.6 1.4 1.3 2zm6.3-6.5h.2c.3-.8.1-1.7-.2-2.6v2.6zm2.1-2.5c.3.8.4 1.6.2 2.4v-1.1l-.2-1.3zM395 40.1c-.3.5-.3.8 0 1.3v-1.3zm9.3-3.7h-.1v.5-.5zm9 24.6c1-.8 2-1.7 2.7-2.8l.8-1.8c1-2.1.7-4.2-.2-6.2a10 10 0 0 0-2-3l-2.4-2-1.2-1.3c-1.4-1.7-1.6-3.5-.4-5.4a8.4 8.4 0 0 1 9.5-4c1.2.4 1.8 1.4 1.4 2.6 0 .3 0 .8-.5.6-.3.5-.8.3-1.2.3l-.2-1.3h-.2v1.2c-.5.2-.8 0-1.2 0l-.3-.7c-.1-.5-.2-1-.5-1.4A6.6 6.6 0 0 0 414 40c-.2.9 0 1.7.5 2.5a8 8 0 0 0 1.7 2l2.8 2.2c1 .8 1.6 1.6 2.2 2.6a7.3 7.3 0 0 1 .5 7.3c-1 2-2.4 3.6-4.3 4.8a7.8 7.8 0 0 1-6 1c-1.8-.3-2.8-1.5-3.6-3-.2-.5-.4-.8-.9-.9-.4 0-.6-.4-.6-.9 0-.7.4-1.2 1-1.3 1-.2 2-.3 3 0 .5.2.8.5 1 1l.5 1.7c.3.7.7 1.4 1.4 2zm6.2-6.5h.2c.3-.8.2-1.7-.2-2.6v2.6zm2.2-2.5c.3.8.3 1.6.1 2.4v-1.1l-.1-1.3zm-9.8-11.9c-.4.5-.4.8 0 1.3v-1.3zm9.2-3.7v.5-.5zm19.9 4V38c-.4.4-.2.8-.2 1.2l-.1 1.1c-1 .2-1.5-.2-1.6-1v-.9c0-.5-.2-1-.6-1.5l-.6.3c-3.1 1.6-5.5 4-7 7.3-1 2.5-2.1 5-2.7 7.6a15 15 0 0 0-.4 3.4c0 .7.2 1.4.5 2a6.3 6.3 0 0 0 2.6 2.8c1 .5 1.8.6 2.8.2 1-.5 2-1 2.8-1.9.5-.5.8-1.2.7-2h-1.6l-2.4-.5c-.3 0-.6-.2-.8-.4-.3-.2-.3-.5 0-.8l.7-.4 2.1-.5 3.1-.1h1.1c1.7.1 2.5.9 2.7 2.6.1 1.2-.2 2.2-1.1 3a12.2 12.2 0 0 1-9.3 2.8l-3-.5a7 7 0 0 1-4.2-3c-.7-1-1-2.2-1-3.5.2-2.3.7-4.4 1.5-6.4.6-1.7 1.3-3.3 2.1-5a15 15 0 0 1 5-5.8c1-.7 2.1-1.4 3.2-1.9 2-1 4.1-1 6.2-.2.8.3 1.4.9 1.6 1.7.3.8 0 1.6-.3 2.3-.2.2-.6.3-1 .4h-.8zm-15.4 16.2l.2-4c-.4 1.3-.7 2.6-.2 4zm1.8-3c-.1.8-.4 1.7 0 2.7v-2.7zm11.9 3.8c.2-.3.3-.6 0-1.1-.2.4-.2.8 0 1.1zm2 0h.2v-.8h-.1v.8zm1.3-18.8V38v.6zm8.4 19.9c.5.1.6.3.7.7 0 .8 0 1.6.2 2.4 0 .4 0 .7-.4.8-.7.4-1.5.5-2.4.5l-.2-.1c0-1.6-.2-3.1.1-4.7l1.5.2c.3 0 .3.3.3.5l.2 3c.4-.3.1-.7.1-1v-1.1-1.2zm-2.5-.4v2.5c.1.7-.2 1.5 0 2.2-.7 0-1.4 0-2-.4a.9.9 0 0 1-.4-.8l.3-2.5c0-.3.3-.5.6-.6l1.5-.4z" fill="#24C18E"/></g></svg>
